# xmcd
#
# Track frame offsets: 
#        150
#        13294
#        28412
#        47684
#        66895
#        80672
#        98017
#        115323
#        129897
#        148430
#        164105
#        180108
#        201045
#        212410
#        228275
#        244767
#        260045
#        276593
#
# Disc length: 3918 seconds
#
# Revision: 2
# Processed by: cddbd v1.5.2PL0 Copyright (c) Steve Scherf et al.
# Submitted via: ExactAudioCopy v1.2
#
DISCID=0e0f4c12
DTITLE=George Strait - Strait Out Of The Box: Part 2
DYEAR=2016
DGENRE=Country
TTITLE0=Blue Clear Sky
TTITLE1=Carried Away
TTITLE2=Rockin' In The Arms Of Your Memory
TTITLE3=I Can Still Make Cheyenne
TTITLE4=Round About Way
TTITLE5=Carrying Your Love With Me
TTITLE6=One Night At A Time
TTITLE7=Today My World Slipped Away
TTITLE8=The Nerve
TTITLE9=I Just Want To Dance With You
TTITLE10=True
TTITLE11=Maria
TTITLE12=We Really Shouldn't Be Doing This
TTITLE13=Meanwhile
TTITLE14=Write This Down
TTITLE15=The Best Day
TTITLE16=Looking Out The Window Through The Pain
TTITLE17=Go On
EXTD=
EXTT0=
EXTT1=
EXTT2=
EXTT3=
EXTT4=
EXTT5=
EXTT6=
EXTT7=
EXTT8=
EXTT9=
EXTT10=
EXTT11=
EXTT12=
EXTT13=
EXTT14=
EXTT15=
EXTT16=
EXTT17=
PLAYORDER=
